<svg id="a" data-name="Layer 2" xmlns="http://www.w3.org/2000/svg" width="80.3mm" height="37.49mm" viewBox="0 0 227.63 106.26">
  <path d="M186.84,11.07C169.01-.12,154.85.44,154.85.44c0,0-.62,14.15,10.49,32.04,2.59-3.91,5.78-7.87,9.69-11.77,3.91-3.9,7.89-7.07,11.81-9.64M224.59,15.11c2.73-8.77,2.5-14.51,2.5-14.51,0,0-5.74-.25-14.53,2.43,2.26,1.15,4.62,2.8,6.94,5.12,2.32,2.33,3.95,4.7,5.09,6.95M221.59,23.02c.8-1.79,1.49-3.51,2.08-5.14-1.38-2.39-3.32-5.05-6.07-7.82-2.76-2.77-5.42-4.73-7.8-6.11-1.64.58-3.36,1.26-5.15,2.05,3.05,1.89,6.24,4.36,9.43,7.56,3.19,3.21,5.64,6.4,7.52,9.46M216.46,32.59c1.33-2.13,2.5-4.2,3.52-6.2-2.14-3.21-4.9-6.67-8.48-10.26-3.58-3.6-7.03-6.38-10.23-8.53-2.01,1.01-4.08,2.17-6.21,3.49,3.91,2.59,7.87,5.78,11.77,9.69,3.9,3.91,7.07,7.89,9.64,11.81M190.84,59.46c4.02-2.83,8.19-6.27,12.38-10.44,4.19-4.17,7.65-8.32,10.5-12.33-2.83-4.02-6.27-8.18-10.44-12.37-4.18-4.19-8.32-7.65-12.33-10.5-4.02,2.83-8.19,6.27-12.38,10.45-4.19,4.17-7.65,8.32-10.5,12.33,2.83,4.02,6.27,8.18,10.45,12.38,4.17,4.19,8.32,7.65,12.32,10.5M180.51,65.68c2.01-1.01,4.08-2.17,6.21-3.49-3.91-2.59-7.87-5.78-11.77-9.69-3.9-3.91-7.06-7.89-9.63-11.81-1.33,2.12-2.5,4.19-3.52,6.2,2.14,3.21,4.91,6.67,8.49,10.27,3.58,3.59,7.02,6.38,10.22,8.53M171.98,69.33c1.64-.58,3.36-1.26,5.15-2.05-3.05-1.89-6.23-4.35-9.43-7.56-3.19-3.21-5.64-6.4-7.52-9.47-.81,1.79-1.49,3.51-2.07,5.14,1.37,2.39,3.32,5.05,6.07,7.82,2.76,2.77,5.41,4.72,7.79,6.11M154.69,72.68s5.74.25,14.53-2.43c-2.25-1.15-4.62-2.8-6.93-5.12-2.32-2.33-3.95-4.7-5.09-6.96-2.73,8.78-2.5,14.52-2.5,14.52M216.44,40.8c-2.59,3.91-5.78,7.87-9.69,11.77-3.92,3.89-7.89,7.06-11.81,9.63,17.83,11.19,31.99,10.64,31.99,10.64,0,0,.62-14.16-10.49-32.04M227.1.6s1.2,7.34-1.11,17.85c1.81,5.47.99,9.6.99,9.6,0,0,.06-2.72-1.66-6.85-.47,1.75-1.04,3.58-1.72,5.46,5.47,11.18,3.6,19.85,3.6,19.85,0,0,.46-6.69-4.96-16.43-.92,2.16-2.01,4.36-3.28,6.61,10.82,19.27,7.98,36.14,7.98,36.14,0,0-16.88,2.76-36.11-8.14-2.25,1.26-4.46,2.34-6.62,3.25,9.71,5.45,16.41,5.03,16.41,5.03,0,0-8.68,1.83-19.84-3.69-1.88.68-3.71,1.23-5.47,1.69,4.12,1.74,6.84,1.69,6.84,1.69,0,0-4.14.81-9.59-1.03-10.53,2.26-17.87,1.03-17.87,1.03,0,0-1.2-7.34,1.11-17.86-1.81-5.46-.99-9.6-.99-9.6,0,0-.07,2.72,1.65,6.84.47-1.75,1.04-3.58,1.72-5.46-5.46-11.18-3.59-19.85-3.59-19.85,0,0-.45,6.69,4.95,16.42.93-2.15,2.01-4.37,3.28-6.6-10.81-19.28-7.97-36.14-7.97-36.14,0,0,16.88-2.77,36.1,8.13,2.24-1.26,4.46-2.34,6.62-3.25C187.87-.13,181.17.29,181.17.29c0,0,8.68-1.83,19.84,3.69,1.88-.68,3.71-1.23,5.47-1.69-4.12-1.74-6.84-1.69-6.84-1.69,0,0,4.13-.81,9.59,1.03,10.52-2.26,17.86-1.02,17.86-1.02M178.32,36.61l12.6-12.54,12.54,12.6-12.6,12.54-12.54-12.6Z" style="fill: #231f20; stroke-width: 0px;"/>
  <g>
    <path d="M212.21,100.59h3.29c0,.08,0,.18.01.31,0,.13.01.23.01.29,0,1.72-.42,2.99-1.24,3.79-.83.8-2.13,1.2-3.91,1.2-.94,0-1.73-.12-2.36-.36-.63-.23-1.15-.6-1.56-1.1-.48-.58-.83-1.32-1.03-2.21-.2-.89-.29-2.48-.29-4.79,0-1.84.09-3.15.27-3.94.18-.79.47-1.44.89-1.94.44-.52,1.01-.91,1.71-1.17.7-.26,1.53-.4,2.5-.39.93,0,1.74.15,2.41.43.67.28,1.23.71,1.67,1.29.37.5.64,1.14.8,1.9.16.76.24,1.99.23,3.68v1.15s-6.87-.02-6.87-.02c-.02.11-.03.24-.03.36,0,.12,0,.32,0,.6,0,1.44.13,2.44.39,3.02.26.57.71.86,1.35.86.62,0,1.07-.23,1.35-.69.28-.47.42-1.22.42-2.26M208.71,96.3h3.39s0-.63,0-.63c0-1.04-.12-1.75-.38-2.14-.25-.39-.69-.59-1.33-.59-.62,0-1.06.2-1.32.61-.26.4-.39,1.11-.4,2.12.02.29.03.5.03.64" style="fill: #231f20; stroke-width: 0px;"/>
    <path d="M227.6,99.88c0,.1.02.22.02.33,0,.12,0,.29,0,.51,0,1.87-.4,3.25-1.2,4.14-.8.89-2.03,1.33-3.7,1.33-1.9,0-3.22-.57-3.97-1.69-.75-1.12-1.12-3.21-1.11-6.27,0-3.05.39-5.13,1.14-6.26.76-1.13,2.08-1.69,3.98-1.69,1.66,0,2.89.42,3.68,1.25.79.83,1.18,2.11,1.18,3.84v.54h-3.34v-.35c0-.91-.11-1.57-.35-1.97-.23-.4-.61-.6-1.15-.61-.54,0-.93.2-1.17.59-.24.39-.36,1.04-.36,1.96v5.21c-.02,1.04.1,1.76.32,2.17.22.41.61.61,1.16.61.59,0,1-.23,1.24-.7.23-.47.35-1.35.35-2.63v-.33l3.29.02Z" style="fill: #231f20; stroke-width: 0px;"/>
    <polygon points="158.14 106.18 154.28 86.08 158.16 86.09 160.58 101.32 163.23 86.1 166.34 86.1 169.19 101.64 171.36 86.11 175.2 86.12 171.5 106.21 167.06 106.2 164.77 93.5 162.6 106.19 158.14 106.18" style="fill: #231f20; stroke-width: 0px;"/>
    <rect x="180.28" y="94.47" width="20.09" height="3.47" transform="translate(93.66 286.3) rotate(-89.86)" style="fill: #231f20; stroke-width: 0px;"/>
    <path d="M182.54,100.67h3.29c0,.08,0,.18.01.31,0,.13.01.23.01.29,0,1.72-.41,2.99-1.24,3.79-.83.8-2.13,1.2-3.91,1.2-.94,0-1.73-.12-2.36-.36-.64-.23-1.16-.6-1.56-1.1-.49-.58-.83-1.32-1.03-2.21-.2-.89-.29-2.48-.29-4.79,0-1.84.1-3.15.27-3.94.18-.79.47-1.44.89-1.94.44-.52,1-.91,1.7-1.18.7-.26,1.54-.4,2.5-.39.93,0,1.73.15,2.41.43.67.28,1.23.71,1.67,1.29.37.51.64,1.14.8,1.9.16.76.24,1.99.23,3.68v1.15s-6.87-.02-6.87-.02c-.02.11-.03.24-.04.36,0,.12,0,.32,0,.6,0,1.44.13,2.44.39,3.02.26.57.71.86,1.35.86.62,0,1.07-.23,1.35-.69.28-.47.42-1.22.42-2.26M179.03,96.38h3.39s0-.63,0-.63c0-1.03-.12-1.75-.37-2.14-.25-.39-.69-.59-1.33-.59-.62,0-1.06.2-1.32.61-.26.4-.39,1.11-.4,2.12.02.29.03.5.03.64" style="fill: #231f20; stroke-width: 0px;"/>
    <polygon points="198.42 106 198.45 89.22 194.15 89.21 194.16 85.9 206.51 85.93 206.5 89.24 202.2 89.23 202.16 106.01 198.42 106" style="fill: #231f20; stroke-width: 0px;"/>
  </g>
  <path d="M23.27,77.31h-2.88l-2.7,10.25c-.09.33-.2.66-.27.99h-.04l-3.4-11.24h-3.28l-3.01,10.25c-.09.33-.2.66-.27.99h-.04l-3.1-11.24H1.07l4.1,13.08c.56,1.8,1.96,2.15,3.6,2.15l3.49-11.24,2.77,9.09c.54,1.78,2.07,2.15,3.76,2.15l4.5-15.23M34.64,92.32v-7.33c0-2.44-1.33-3.88-3.85-3.88-1.15,0-2.29.29-3.33.73v-5.62h-2.7v16.11h2.7v-8.12c.74-.44,1.71-.81,2.59-.81,1.13,0,1.89.79,1.89,2v6.94h2.7ZM40.12,77.6c0-.88-.77-1.56-1.67-1.56s-1.62.68-1.62,1.56c0,.92.7,1.54,1.62,1.54s1.67-.61,1.67-1.54ZM37.15,92.32h2.7v-10.97h-2.7v10.97ZM49.86,92.1l-.74-2.13c-.65.22-1.31.44-2,.44s-1.03-.26-1.03-.94v-5.84h3.15v-2.28h-3.15v-3.01h-2.7v3.05l-1.28.07v2.08l1.28.07v6.06c0,2.13,1.42,3.05,3.46,3.05,1.06,0,2.02-.29,3.01-.62ZM54.92,77.6c0-.88-.76-1.56-1.67-1.56s-1.62.68-1.62,1.56c0,.92.7,1.54,1.62,1.54s1.67-.61,1.67-1.54ZM51.95,92.32h2.7v-10.97h-2.7v10.97ZM64.52,81.35c-.61-.15-1.37-.24-2.07-.24-1.78,0-3.51.55-5.13,1.21,0,0,.2,1.1.2,1.65v8.36h2.7v-8.43c0-.07-.02-.22-.02-.22.65-.2,1.35-.28,2.02-.28.49,0,1.13.11,1.48.22l.81-2.26ZM75,86.35c0-3.05-1.87-5.25-5.11-5.25-3.44,0-5.22,2.57-5.22,5.75,0,3.4,2.3,5.71,5.76,5.71,1.33,0,2.65-.31,3.87-.81l-.86-2.04c-.81.35-1.93.57-2.86.57-1.67,0-2.83-.79-3.01-2.48h7.27c.07-.48.16-.97.16-1.45ZM72.21,85.74h-4.63c.07-1.32.9-2.46,2.34-2.46s2.27,1.07,2.3,2.46ZM80.05,77.6c0-.88-.76-1.56-1.66-1.56s-1.62.68-1.62,1.56c0,.92.7,1.54,1.62,1.54s1.66-.61,1.66-1.54ZM77.09,92.32h2.7v-10.97h-2.7v10.97ZM91.61,91.71s-.16-.92-.16-1.38v-5.64c0-2.55-1.8-3.58-4.21-3.58-1.46,0-3.1.35-4.43.94l.92,2c.94-.4,2.11-.66,3.13-.66.67,0,1.89.09,1.89,1.01,0,1.91-6.97.4-6.97,4.83,0,2.57,2.88,3.34,5.04,3.34,1.64,0,3.24-.4,4.79-.86ZM88.8,90.06c-.63.2-1.31.31-1.96.31-.97,0-2.09-.2-2.09-1.34,0-1.58,3.08-1.23,4.01-2.08v2.7c0,.15.04.42.04.42Z" style="fill: #231f20; fill-rule: evenodd; stroke-width: 0px;"/>
  <path d="M10.93,106.05v-9.49h-.93v8.59h-.03s-.13-.33-.22-.49l-4.88-8.1h-1.38v9.54h.93v-8.65h.04s.1.33.19.49l4.46,7.32c.31.52.77.89,1.3.91.17,0,.35-.06.52-.13M18,106.11v-.81h-3.95v-3.77h3.19v-.81h-3.19v-3.35h3.82v-.81h-4.76v9.54h4.88ZM31.65,96.56h-.89l-2.27,7.77c-.06.21-.11.46-.13.61h-.04l-2.39-8.38h-1.13l-2.26,7.76c-.08.27-.11.54-.13.63h-.03l-2.44-8.38h-1l2.58,8.5c.35,1.16,1.05,1.19,1.28,1.19l2.44-8.26c.06-.18.07-.33.07-.33.01,0,.03.17.08.33l2.04,7.07c.33,1.16,1.02,1.19,1.31,1.19l2.9-9.68ZM42.55,97.37v-.81h-6.37v.81h5.33l-5.23,7.55c-.19.29-.33.45-.33.81,0,.13.03.26.07.38h6.53v-.81h-5.45l5.47-7.92ZM49.27,106.11v-.81h-3.95v-3.77h3.19v-.81h-3.19v-3.35h3.82v-.81h-4.76v9.54h4.88ZM58.55,106.11l-3.7-9.54h-.93l-3.84,9.54h.93l1.07-2.78h4.38l1.09,2.78h.99ZM56.16,102.52h-3.72l1.76-4.55.11-.31,1.86,4.85ZM64.85,106.11v-.81h-3.95v-8.73h-.93v9.54h4.88ZM73.7,106.11l-3.7-9.54h-.93l-3.84,9.54h.93l1.07-2.78h4.38l1.09,2.78h.99ZM71.32,102.52h-3.72l1.76-4.55.11-.31,1.85,4.85ZM82.45,106.05v-9.49h-.93v8.59h-.03s-.13-.33-.22-.49l-4.88-8.1h-1.38v9.54h.93v-8.65h.04s.1.33.19.49l4.46,7.32c.31.52.77.89,1.3.91.17,0,.35-.06.52-.13ZM92.05,101.1c0-3.01-1.81-4.69-4.78-4.69-.84,0-1.67.08-2.5.25v9.39c.73.14,1.45.21,2.19.21,3.19,0,5.09-1.99,5.09-5.16ZM91.11,101.1c0,2.55-1.38,4.35-4.05,4.35-.45,0-.91-.04-1.35-.14v-7.94c.5-.11,1.05-.15,1.56-.15,2.46,0,3.84,1.44,3.84,3.88Z" style="fill: #231f20; fill-rule: evenodd; stroke-width: 0px;"/>
  <rect x="119.81" y=".9" width=".5" height="105.2" style="fill: #231f20; opacity: .5; stroke-width: 0px;"/>
  <g>
    <path d="M51.05,51.16l2.58-7.98c3.6,2.35,7.16,4.75,10.64,7.27-.66,2.68-1.37,5.36-2.13,8.03l-.72-.5c-3.4-2.35-6.87-4.61-10.37-6.82" style="fill: #231f20; stroke-width: 0px;"/>
    <path d="M49.66,68.65C33.38,58.1,17.08,47.42,1.76,35.54,0,34.07-.42,31.7.42,29.45c.98-2.62,2.14-5.2,3.64-7.55,1.19-1.86,3.54-2.75,5.8-2.06,11.99,4.87,23.44,10.95,34.52,17.56l-2.61,8.11c-11.12-6.5-22.57-12.48-34.5-17.45l-.24.4c14.8,11,30.16,21.27,45.46,31.58-.89,2.88-1.83,5.75-2.83,8.59" style="fill: #231f20; stroke-width: 0px;"/>
    <path d="M81.28,1.72h0c.1-.52.42-.68.85-.68.45,0,.99.22,1.36.5,1.52,1.14,2.92,2.43,4.28,3.75,1.15,1.12,2.09,2.53,2.34,4.04l.02.18c1.38,9.25,1.19,18.67.24,27.98-1.42-1.43-2.89-2.82-4.37-4.18.97-8.91,1.25-17.91.19-26.82h-.47c-1.36,12.12-3.21,24.14-5.77,36.07l-5.14-4.46c2.68-12.05,4.54-24.2,6.47-36.37M89.07,47.01l-.22,1.34c-.31,1.8-.65,3.59-1.03,5.37-.28,1.21-.75,2.66-1.76,3.21-.73.41-1.5.09-2.29-.58l-1.65-1.42c.65-2.63,1.22-5.25,1.74-7.89l.47-2.48.3-1.68c1.52,1.35,2.99,2.71,4.43,4.12" style="fill: #231f20; stroke-width: 0px;"/>
    <path d="M64.56,49.22h0c-2.16-1.56-4.36-3.07-6.57-4.56,1.53-6.27,2.86-12.61,3.83-18.99,2.19,1.4,4.35,2.84,6.48,4.32-.91,6.47-2.24,12.89-3.74,19.23M59.29,67.9h0c-.47,1.38-1.35,2.83-2.67,3.41-1.17.52-2.39.21-3.71-.59l-2.23-1.4c1.64-4.67,3.12-9.39,4.5-14.13,1.92,1.25,3.83,2.53,5.72,3.83l.91.64c-.78,2.68-1.59,5.35-2.44,8.01l-.08.24ZM48.45,28.74h0l6.81,5.55c-2.32,7.18-4.62,14.37-6.97,21.54l-7.09-4.78c2.41-7.43,4.76-14.9,7.24-22.32M57.56,4.08c.44-.9,1.98-1.02,3-.53,2.36,1.12,4.86,2.52,6.79,4.25,1.18.96,2.23,2.36,2.23,3.82.03,2.94-.06,5.72-.25,8.49-2.07-1.46-4.19-2.87-6.33-4.25.13-1.48.24-2.96.32-4.44l-.46-.09c-1.5,4.37-2.97,8.76-4.41,13.15l-6.67-5.42c1.81-5.05,3.7-10.04,5.77-14.98" style="fill: #231f20; stroke-width: 0px;"/>
    <path d="M90.22,38.98h0c-.35,2.95-.75,5.62-.91,6.65-1.38-1.35-2.78-2.64-4.21-3.91l-.32-.29c-.95-.83-1.9-1.66-2.87-2.47.46-2.18.88-4.38,1.27-6.58,2.42,2.13,4.79,4.32,7.05,6.61M67.25,42.53h0c.57-2.66,1.09-5.34,1.55-8.02,4.72,3.96,9.38,7.97,13.96,12.08-.5,2.53-1.04,5.01-1.64,7.48-4.57-3.91-9.21-7.74-13.87-11.54M38.67,19.1h0c-1.23-1.08-1.66-2.83-1.35-4.46.49-2.5,1.65-4.87,2.99-7.04.69-1.13,2.35-1.45,3.42-.99,3.27,1.48,6.47,3.11,9.61,4.85-.83,2.16-1.63,4.33-2.41,6.5-1.44-.77-2.89-1.52-4.35-2.24l-.26.39c4.68,3.8,9.37,7.59,14.03,11.41-.45,2.73-.97,5.45-1.53,8.17-6.76-5.48-13.52-10.96-20.15-16.59M60.1,23.24l2.16-6.48c4.72,3.02,9.3,6.24,13.71,9.67-.42,2.25-.86,4.5-1.32,6.75-4.69-3.53-9.55-6.84-14.55-9.94" style="fill: #231f20; stroke-width: 0px;"/>
  </g>
</svg>